<?xml version="1.0" standalone="no"?>
<!DOCTYPE svg PUBLIC "-//W3C//DTD SVG 20010904//EN"
  "http://www.w3.org/TR/2001/REC-SVG-20010904/DTD/svg10.dtd">
<svg 
  version="1.0" 
  xmlns="http://www.w3.org/2000/svg"
  width="52.000000pt" 
  height="52.000000pt" 
  viewBox="0 0 52.000000 52.000000"
  preserveAspectRatio="xMidYMid meet"
>
  <g 
    transform="translate(0.000000,52.000000) scale(0.100000,-0.100000)"
    fill="#000000" 
    stroke="none"
  >
    <path d="M104 506 c-8 -22 3 -49 19 -43 16 5 16 49 0 54 -7 3 -16 -2 -19 -11z"/>
    <path d="M24 489 c-3 -6 3 -21 15 -32 16 -16 23 -19 33 -9 9 9 7 16 -7 32 -20 23 -31 25 -41 9z"/>
    <path d="M212 489 c-48 -14 -109 -80 -123 -131 -6 -24 -9 -83 -7 -134 3 -78 8 -97 30 -132 41 -62 90 -87 169 -87 54 0 72 5 106 27 22 15 51 44 64 65 22 34 24 49 24 153 0 104 -2 119 -24 153 -47 76 -151 113 -239 86z m157 -58 c42 -29 64 -67 69 -120 l5 -51 -72 0 -71 0 0 101 c0 99 0 100 23 94 12 -4 33 -14 46 -24z m68 -253 c-6 -45 -28 -81 -71 -112 -39 -29 -133 -29 -172 0 -43 31 -65 67 -71 112 l-6 42 163 0 163 0 -6 -42z"/>
    <path d="M0 400 c0 -17 5 -21 28 -18 36 4 36 32 0 36 -23 3 -28 -1 -28 -18z"/>
  </g>
</svg>
