<?xml version="1.0" standalone="no"?>
<!DOCTYPE svg PUBLIC "-//W3C//DTD SVG 20010904//EN"
 "http://www.w3.org/TR/2001/REC-SVG-20010904/DTD/svg10.dtd">
<svg version="1.0" xmlns="http://www.w3.org/2000/svg"
 width="50.000000pt" height="50.000000pt" viewBox="0 0 50.000000 50.000000"
 preserveAspectRatio="xMidYMid meet">

<g transform="translate(0.000000,50.000000) scale(0.100000,-0.100000)"
fill="#000000" stroke="none">
<path d="M380 494 c0 -3 17 -25 38 -49 21 -24 44 -62 51 -85 6 -22 16 -38 21
-35 9 6 0 48 -20 86 -23 45 -90 106 -90 83z"/>
<path d="M165 451 c-79 -36 -105 -91 -105 -219 0 -71 4 -96 23 -132 66 -132
248 -132 315 0 18 36 22 60 22 135 -1 130 -29 185 -113 220 -48 20 -93 19
-142 -4z m65 -106 l0 -105 -75 0 -75 0 0 40 c0 72 30 120 95 154 53 28 55 25
55 -89z m168 -176 c-9 -91 -67 -144 -158 -144 -91 0 -149 53 -158 144 l-5 51
163 0 163 0 -5 -51z"/>
<path d="M389 422 c18 -21 35 -52 40 -68 7 -29 29 -33 23 -4 -6 31 -58 105
-76 108 -15 3 -12 -4 13 -36z"/>
</g>
</svg>
